<svg width="57" height="66" viewBox="0 0 57 66" fill="none" xmlns="http://www.w3.org/2000/svg">
<path d="M28.4777 4.91773C14.712 4.91128 3.5625 17.8148 3.5625 33.7412C3.5625 46.3353 10.5372 57.041 20.2506 60.9726C21.5587 61.3529 21.3583 60.2765 21.3583 59.5417V54.5466C13.8047 55.5714 13.4985 49.7835 12.992 48.8167C11.9678 46.7929 9.54639 46.2773 10.27 45.3105C11.99 44.2857 13.7435 45.5683 15.7752 49.0423C17.2447 51.5625 20.1114 51.1371 21.5643 50.7181C21.8815 49.2035 22.5606 47.8499 23.4958 46.7994C15.6694 45.1751 12.4075 39.6451 12.4075 33.0709C12.4075 29.8804 13.3148 26.9478 15.0961 24.5824C13.9605 20.683 15.2019 17.3443 15.3688 16.848C18.6029 16.5128 21.965 19.5293 22.2267 19.7677C24.0636 19.1941 26.1621 18.8912 28.5111 18.8912C30.8713 18.8912 32.9754 19.207 34.829 19.7871C35.458 19.2328 38.5752 16.6418 41.5811 16.9576C41.7425 17.4539 42.956 20.7152 41.8872 24.563C43.6907 26.9349 44.6092 29.8933 44.6092 33.0902C44.6092 39.6773 41.325 45.2138 33.4764 46.8123C34.1486 47.5778 34.6824 48.4907 35.0465 49.4977C35.4107 50.5048 35.5979 51.5857 35.5972 52.6775V59.9285C35.6417 60.5085 35.5972 61.0822 36.4321 61.0822C46.2902 57.2343 53.3874 46.4513 53.3874 33.7476C53.3874 17.8148 42.2323 4.91773 28.4777 4.91773Z" fill="black"/>
</svg>
