<svg width="52" height="63" viewBox="0 0 52 63" fill="none" xmlns="http://www.w3.org/2000/svg">
<path d="M41.1667 7.875C42.3159 7.875 43.4181 8.42812 44.2308 9.41269C45.0435 10.3973 45.5 11.7326 45.5 13.125V49.875C45.5 51.2674 45.0435 52.6027 44.2308 53.5873C43.4181 54.5719 42.3159 55.125 41.1667 55.125H10.8333C9.68406 55.125 8.58186 54.5719 7.7692 53.5873C6.95655 52.6027 6.5 51.2674 6.5 49.875V13.125C6.5 11.7326 6.95655 10.3973 7.7692 9.41269C8.58186 8.42812 9.68406 7.875 10.8333 7.875H41.1667ZM40.0833 48.5625V34.65C40.0833 32.3804 39.3392 30.2038 38.0145 28.5989C36.6899 26.9941 34.8933 26.0925 33.02 26.0925C31.1783 26.0925 29.0333 27.4575 27.9933 29.505V26.5912H21.9483V48.5625H27.9933V35.6213C27.9933 33.6 29.3367 31.9463 31.005 31.9463C31.8095 31.9463 32.581 32.3334 33.1499 33.0226C33.7188 33.7118 34.0383 34.6466 34.0383 35.6213V48.5625H40.0833ZM14.9067 22.47C15.8721 22.47 16.7979 22.0054 17.4805 21.1783C18.1632 20.3513 18.5467 19.2296 18.5467 18.06C18.5467 15.6188 16.9217 13.6238 14.9067 13.6238C13.9355 13.6238 13.0042 14.0911 12.3175 14.9231C11.6308 15.7551 11.245 16.8834 11.245 18.06C11.245 20.5013 12.8917 22.47 14.9067 22.47ZM17.9183 48.5625V26.5912H11.9167V48.5625H17.9183Z" fill="black"/>
</svg>
