<svg width="55" height="58" viewBox="0 0 55 58" fill="none" xmlns="http://www.w3.org/2000/svg">
<path fill-rule="evenodd" clip-rule="evenodd" d="M19.8619 22.7577C19.0845 22.7577 18.3148 22.9191 17.5966 23.2328C16.8785 23.5465 16.2259 24.0063 15.6763 24.586C15.1266 25.1656 14.6906 25.8538 14.3931 26.6111C14.0956 27.3685 13.9425 28.1802 13.9425 28.9999C13.9425 29.8197 14.0956 30.6314 14.3931 31.3887C14.6906 32.1461 15.1266 32.8342 15.6763 33.4139C16.2259 33.9935 16.8785 34.4533 17.5966 34.767C18.3148 35.0807 19.0845 35.2422 19.8619 35.2422H25.7813V29.1256C25.7803 29.0418 25.7803 28.958 25.7813 28.8743V22.7577H19.8619ZM25.7813 19.1327H19.8619C18.2917 19.1327 16.7858 18.4749 15.6754 17.304C14.5651 16.1331 13.9414 14.5451 13.9414 12.8892C13.9414 11.2333 14.5651 9.64529 15.6754 8.47442C16.7858 7.30354 18.2917 6.64575 19.8619 6.64575H25.7813V19.1327ZM29.2188 6.64575V19.1327H35.1381C36.6882 19.1005 38.1645 18.4286 39.2499 17.2612C40.3353 16.0938 40.9433 14.5241 40.9433 12.8892C40.9433 11.2543 40.3353 9.68458 39.2499 8.51721C38.1645 7.34984 36.6882 6.67791 35.1381 6.64575H29.2188ZM35.1381 22.7553C33.5844 22.755 32.0928 23.3991 30.9854 24.5484C29.8779 25.6977 29.2434 27.2601 29.2188 28.8984V29.099C29.2377 30.3291 29.601 31.5258 30.2628 32.5389C30.9247 33.552 31.8556 34.3363 32.9388 34.7932C34.0219 35.2501 35.209 35.3594 36.3508 35.1072C37.4927 34.855 38.5384 34.2526 39.3566 33.3757C40.1748 32.4988 40.7291 31.3865 40.9498 30.1785C41.1705 28.9704 41.0478 27.7206 40.5971 26.5858C40.1464 25.4511 39.3878 24.4821 38.4165 23.8006C37.4453 23.1191 36.3047 22.7554 35.1381 22.7553ZM19.8619 38.8672C18.6906 38.8667 17.5455 39.2325 16.5714 39.9184C15.5972 40.6043 14.8379 41.5794 14.3893 42.7204C13.9408 43.8614 13.8232 45.1171 14.0514 46.3286C14.2797 47.5401 14.8435 48.653 15.6715 49.5266C16.4996 50.4002 17.5547 50.9952 18.7035 51.2363C19.8522 51.4775 21.043 51.354 22.1252 50.8814C23.2074 50.4088 24.1323 49.6084 24.7831 48.5814C25.4339 47.5545 25.7813 46.347 25.7813 45.1118V38.8672H19.8619Z" fill="black"/>
</svg>
