<svg width="44" height="48" viewBox="0 0 44 48" fill="none" xmlns="http://www.w3.org/2000/svg">
<path d="M12.76 0H31.24C38.28 0 44 6.24 44 13.92V34.08C44 37.7718 42.6556 41.3124 40.2627 43.9229C37.8697 46.5334 34.6242 48 31.24 48H12.76C5.72 48 0 41.76 0 34.08V13.92C0 10.2282 1.34435 6.68758 3.73732 4.07707C6.13028 1.46657 9.37584 0 12.76 0ZM12.32 4.8C10.2195 4.8 8.205 5.71028 6.71971 7.3306C5.23443 8.95091 4.4 11.1485 4.4 13.44V34.56C4.4 39.336 7.942 43.2 12.32 43.2H31.68C33.7805 43.2 35.795 42.2897 37.2803 40.6694C38.7656 39.0491 39.6 36.8515 39.6 34.56V13.44C39.6 8.664 36.058 4.8 31.68 4.8H12.32ZM33.55 8.4C34.2793 8.4 34.9788 8.71607 35.4945 9.27868C36.0103 9.84129 36.3 10.6044 36.3 11.4C36.3 12.1957 36.0103 12.9587 35.4945 13.5213C34.9788 14.0839 34.2793 14.4 33.55 14.4C32.8207 14.4 32.1212 14.0839 31.6055 13.5213C31.0897 12.9587 30.8 12.1957 30.8 11.4C30.8 10.6044 31.0897 9.84129 31.6055 9.27868C32.1212 8.71607 32.8207 8.4 33.55 8.4ZM22 12C24.9174 12 27.7153 13.2643 29.7782 15.5147C31.8411 17.7652 33 20.8174 33 24C33 27.1826 31.8411 30.2348 29.7782 32.4853C27.7153 34.7357 24.9174 36 22 36C19.0826 36 16.2847 34.7357 14.2218 32.4853C12.1589 30.2348 11 27.1826 11 24C11 20.8174 12.1589 17.7652 14.2218 15.5147C16.2847 13.2643 19.0826 12 22 12ZM22 16.8C20.2496 16.8 18.5708 17.5586 17.3331 18.9088C16.0954 20.2591 15.4 22.0904 15.4 24C15.4 25.9096 16.0954 27.7409 17.3331 29.0912C18.5708 30.4414 20.2496 31.2 22 31.2C23.7504 31.2 25.4292 30.4414 26.6669 29.0912C27.9046 27.7409 28.6 25.9096 28.6 24C28.6 22.0904 27.9046 20.2591 26.6669 18.9088C25.4292 17.5586 23.7504 16.8 22 16.8Z" fill="black"/>
</svg>
