<svg width="250" height="113" viewBox="0 0 250 113" fill="none" xmlns="http://www.w3.org/2000/svg">
<circle cx="5.5" cy="5.5" r="5.5" fill="#1C25FF" fill-opacity="0.25"/>
<circle cx="5.5" cy="39.5" r="5.5" fill="#1C25FF" fill-opacity="0.25"/>
<circle cx="5.5" cy="107.5" r="5.5" fill="#1C25FF" fill-opacity="0.25"/>
<circle cx="5.5" cy="73.5" r="5.5" fill="#1C25FF" fill-opacity="0.25"/>
<circle cx="53.5" cy="5.5" r="5.5" fill="#1C25FF" fill-opacity="0.25"/>
<circle cx="53.5" cy="39.5" r="5.5" fill="#1C25FF" fill-opacity="0.25"/>
<circle cx="53.5" cy="107.5" r="5.5" fill="#1C25FF" fill-opacity="0.25"/>
<circle cx="53.5" cy="73.5" r="5.5" fill="#1C25FF" fill-opacity="0.25"/>
<circle cx="101.5" cy="5.5" r="5.5" fill="#1C25FF" fill-opacity="0.25"/>
<circle cx="101.5" cy="39.5" r="5.5" fill="#1C25FF" fill-opacity="0.25"/>
<circle cx="101.5" cy="107.5" r="5.5" fill="#1C25FF" fill-opacity="0.25"/>
<circle cx="101.5" cy="73.5" r="5.5" fill="#1C25FF" fill-opacity="0.25"/>
<circle cx="149.5" cy="5.5" r="5.5" fill="#1C25FF" fill-opacity="0.25"/>
<circle cx="149.5" cy="39.5" r="5.5" fill="#1C25FF" fill-opacity="0.25"/>
<circle cx="149.5" cy="107.5" r="5.5" fill="#1C25FF" fill-opacity="0.25"/>
<circle cx="149.5" cy="73.5" r="5.5" fill="#1C25FF" fill-opacity="0.25"/>
<circle cx="197.5" cy="5.5" r="5.5" fill="#1C25FF" fill-opacity="0.25"/>
<circle cx="197.5" cy="39.5" r="5.5" fill="#1C25FF" fill-opacity="0.25"/>
<circle cx="197.5" cy="107.5" r="5.5" fill="#1C25FF" fill-opacity="0.25"/>
<circle cx="197.5" cy="73.5" r="5.5" fill="#1C25FF" fill-opacity="0.25"/>
<circle cx="244.5" cy="5.5" r="5.5" fill="#1C25FF" fill-opacity="0.25"/>
<circle cx="244.5" cy="39.5" r="5.5" fill="#1C25FF" fill-opacity="0.25"/>
<circle cx="244.5" cy="107.5" r="5.5" fill="#1C25FF" fill-opacity="0.25"/>
<circle cx="244.5" cy="73.5" r="5.5" fill="#1C25FF" fill-opacity="0.25"/>
</svg>
