<svg width="394" height="113" viewBox="0 0 394 113" fill="none" xmlns="http://www.w3.org/2000/svg">
<path fill-rule="evenodd" clip-rule="evenodd" d="M11 5.5C11 8.53757 8.53757 11 5.5 11C2.46243 11 0 8.53757 0 5.5C0 2.46243 2.46243 0 5.5 0C8.53757 0 11 2.46243 11 5.5ZM11 39.5C11 42.5376 8.53757 45 5.5 45C2.46243 45 0 42.5376 0 39.5C0 36.4624 2.46243 34 5.5 34C8.53757 34 11 36.4624 11 39.5ZM5.5 113C8.53757 113 11 110.538 11 107.5C11 104.462 8.53757 102 5.5 102C2.46243 102 0 104.462 0 107.5C0 110.538 2.46243 113 5.5 113ZM11 73.5C11 76.5375 8.53757 79 5.5 79C2.46243 79 0 76.5375 0 73.5C0 70.4625 2.46243 68 5.5 68C8.53757 68 11 70.4625 11 73.5ZM53.5 11C56.5376 11 59 8.53757 59 5.5C59 2.46243 56.5376 0 53.5 0C50.4624 0 48 2.46243 48 5.5C48 8.53757 50.4624 11 53.5 11ZM59 39.5C59 42.5376 56.5376 45 53.5 45C50.4624 45 48 42.5376 48 39.5C48 36.4624 50.4624 34 53.5 34C56.5376 34 59 36.4624 59 39.5ZM53.5 113C56.5376 113 59 110.538 59 107.5C59 104.462 56.5376 102 53.5 102C50.4624 102 48 104.462 48 107.5C48 110.538 50.4624 113 53.5 113ZM59 73.5C59 76.5375 56.5376 79 53.5 79C50.4624 79 48 76.5375 48 73.5C48 70.4625 50.4624 68 53.5 68C56.5376 68 59 70.4625 59 73.5ZM101.5 11C104.538 11 107 8.53757 107 5.5C107 2.46243 104.538 0 101.5 0C98.4624 0 96 2.46243 96 5.5C96 8.53757 98.4624 11 101.5 11ZM107 39.5C107 42.5376 104.538 45 101.5 45C98.4624 45 96 42.5376 96 39.5C96 36.4624 98.4624 34 101.5 34C104.538 34 107 36.4624 107 39.5ZM101.5 113C104.538 113 107 110.538 107 107.5C107 104.462 104.538 102 101.5 102C98.4624 102 96 104.462 96 107.5C96 110.538 98.4624 113 101.5 113ZM107 73.5C107 76.5375 104.538 79 101.5 79C98.4624 79 96 76.5375 96 73.5C96 70.4625 98.4624 68 101.5 68C104.538 68 107 70.4625 107 73.5ZM149.5 11C152.538 11 155 8.53757 155 5.5C155 2.46243 152.538 0 149.5 0C146.462 0 144 2.46243 144 5.5C144 8.53757 146.462 11 149.5 11ZM155 39.5C155 42.5376 152.538 45 149.5 45C146.462 45 144 42.5376 144 39.5C144 36.4624 146.462 34 149.5 34C152.538 34 155 36.4624 155 39.5ZM149.5 113C152.538 113 155 110.538 155 107.5C155 104.462 152.538 102 149.5 102C146.462 102 144 104.462 144 107.5C144 110.538 146.462 113 149.5 113ZM155 73.5C155 76.5375 152.538 79 149.5 79C146.462 79 144 76.5375 144 73.5C144 70.4625 146.462 68 149.5 68C152.538 68 155 70.4625 155 73.5ZM197.5 11C200.538 11 203 8.53757 203 5.5C203 2.46243 200.538 0 197.5 0C194.462 0 192 2.46243 192 5.5C192 8.53757 194.462 11 197.5 11ZM203 39.5C203 42.5376 200.538 45 197.5 45C194.462 45 192 42.5376 192 39.5C192 36.4624 194.462 34 197.5 34C200.538 34 203 36.4624 203 39.5ZM197.5 113C200.538 113 203 110.538 203 107.5C203 104.462 200.538 102 197.5 102C194.462 102 192 104.462 192 107.5C192 110.538 194.462 113 197.5 113ZM203 73.5C203 76.5375 200.538 79 197.5 79C194.462 79 192 76.5375 192 73.5C192 70.4625 194.462 68 197.5 68C200.538 68 203 70.4625 203 73.5ZM245 10.9776C244.835 10.9924 244.669 11 244.5 11C241.462 11 239 8.53757 239 5.5C239 2.46243 241.462 0 244.5 0C244.669 0 244.835 0.00759888 245 0.0224304C245.165 0.00759888 245.331 0 245.5 0C248.538 0 251 2.46243 251 5.5C251 8.53757 248.538 11 245.5 11C245.331 11 245.165 10.9924 245 10.9776ZM245 44.9776C244.835 44.9924 244.669 45 244.5 45C241.462 45 239 42.5376 239 39.5C239 36.4624 241.462 34 244.5 34C244.669 34 244.835 34.0076 245 34.0224C245.165 34.0076 245.331 34 245.5 34C248.538 34 251 36.4624 251 39.5C251 42.5376 248.538 45 245.5 45C245.331 45 245.165 44.9924 245 44.9776ZM245 112.978C244.835 112.992 244.669 113 244.5 113C241.462 113 239 110.538 239 107.5C239 104.462 241.462 102 244.5 102C244.669 102 244.835 102.008 245 102.022C245.165 102.008 245.331 102 245.5 102C248.538 102 251 104.462 251 107.5C251 110.538 248.538 113 245.5 113C245.331 113 245.165 112.992 245 112.978ZM245 78.9776C244.835 78.9924 244.669 79 244.5 79C241.462 79 239 76.5375 239 73.5C239 70.4625 241.462 68 244.5 68C244.669 68 244.835 68.0076 245 68.0224C245.165 68.0076 245.331 68 245.5 68C248.538 68 251 70.4625 251 73.5C251 76.5375 248.538 79 245.5 79C245.331 79 245.165 78.9924 245 78.9776ZM293.5 11C296.538 11 299 8.53757 299 5.5C299 2.46243 296.538 0 293.5 0C290.462 0 288 2.46243 288 5.5C288 8.53757 290.462 11 293.5 11ZM299 39.5C299 42.5376 296.538 45 293.5 45C290.462 45 288 42.5376 288 39.5C288 36.4624 290.462 34 293.5 34C296.538 34 299 36.4624 299 39.5ZM293.5 113C296.538 113 299 110.538 299 107.5C299 104.462 296.538 102 293.5 102C290.462 102 288 104.462 288 107.5C288 110.538 290.462 113 293.5 113ZM299 73.5C299 76.5375 296.538 79 293.5 79C290.462 79 288 76.5375 288 73.5C288 70.4625 290.462 68 293.5 68C296.538 68 299 70.4625 299 73.5ZM341.5 11C344.538 11 347 8.53757 347 5.5C347 2.46243 344.538 0 341.5 0C338.462 0 336 2.46243 336 5.5C336 8.53757 338.462 11 341.5 11ZM347 39.5C347 42.5376 344.538 45 341.5 45C338.462 45 336 42.5376 336 39.5C336 36.4624 338.462 34 341.5 34C344.538 34 347 36.4624 347 39.5ZM341.5 113C344.538 113 347 110.538 347 107.5C347 104.462 344.538 102 341.5 102C338.462 102 336 104.462 336 107.5C336 110.538 338.462 113 341.5 113ZM347 73.5C347 76.5375 344.538 79 341.5 79C338.462 79 336 76.5375 336 73.5C336 70.4625 338.462 68 341.5 68C344.538 68 347 70.4625 347 73.5ZM388.5 11C391.538 11 394 8.53757 394 5.5C394 2.46243 391.538 0 388.5 0C385.462 0 383 2.46243 383 5.5C383 8.53757 385.462 11 388.5 11ZM394 39.5C394 42.5376 391.538 45 388.5 45C385.462 45 383 42.5376 383 39.5C383 36.4624 385.462 34 388.5 34C391.538 34 394 36.4624 394 39.5ZM388.5 113C391.538 113 394 110.538 394 107.5C394 104.462 391.538 102 388.5 102C385.462 102 383 104.462 383 107.5C383 110.538 385.462 113 388.5 113ZM394 73.5C394 76.5375 391.538 79 388.5 79C385.462 79 383 76.5375 383 73.5C383 70.4625 385.462 68 388.5 68C391.538 68 394 70.4625 394 73.5Z" fill="#1C25FF" fill-opacity="0.25"/>
</svg>
